# xmcd CD database file
# Copyright (C) 1996 Ti Kan
#
# Track frame offsets:
#  150
#  25152
#  43470
#
# Disc length: 827 seconds
#
# Revision: 1
# Processed by: cddbd v1.4b41PL1 Copyright (c) Steve Scherf et al.
# Submitted via: CDWizzard Release:4.13
#
DISCID=22033903
DTITLE=R. Kelly - I Can't Sleep Baby (If I)
DYEAR=1900
DGENRE=
TTITLE0=LP Version
TTITLE1=Remix-Street Version
TTITLE2=Animation Soundtrack:The Big C, Such A Man Is He, Fight Scene (fr
TTITLE2=om 1996 Down Low Top Secret Tour)
EXTD=
EXTT0=
EXTT1=
EXTT2=
PLAYORDER=
